<?xml version="1.0" encoding="utf-8"?>
<!-- Generator: Adobe Illustrator 16.0.0, SVG Export Plug-In . SVG Version: 6.00 Build 0)  -->
<!DOCTYPE svg PUBLIC "-//W3C//DTD SVG 1.1//EN" "http://www.w3.org/Graphics/SVG/1.1/DTD/svg11.dtd">
<svg version="1.1" id="Layer_1" xmlns="http://www.w3.org/2000/svg" xmlns:xlink="http://www.w3.org/1999/xlink" x="0px" y="0px"
	 width="240.667px" height="226px" viewBox="0 0 240.667 226" enable-background="new 0 0 240.667 226" xml:space="preserve">
<g>
	<g>
		<g>
			<defs>
				<rect id="SVGID_1_" x="1.667" y="2" width="242.252" height="230"/>
			</defs>
			<clipPath id="SVGID_2_">
				<use xlink:href="#SVGID_1_"  overflow="visible"/>
			</clipPath>
			<path clip-path="url(#SVGID_2_)" fill="#8EBCBB" d="M236.16,105.869c-7.188-17.513-20.814-26.41-40.48-26.41H172.07
				c3.994-8.979,8.438-22.056,8.438-37.784c0-4.343-0.352-8.779-1.147-13.377c-3.096-18.262-15.573-27.995-33.344-26.055
				c-7.044,0.805-9.427,7.487-15.267,23.665c-4.842,13.433-11.487,31.794-21.069,46.562c-7.095,10.837-19.666,19.423-30.197,24.713
				V95.83H1.667v115.543h77.814v-6.327c12.229-0.61,19.223-0.249,20.87,0.25l13.876,8.086l10.424,6.478
				c10.077,5.453,54.308,6,73.272,3.193c24.408-3.58,30.298-23.547,30.548-24.396C230.371,192.02,247.139,132.561,236.16,105.869
				L236.16,105.869z M213.75,194.465c-0.103,0.387-3.695,11.381-18.021,13.428c-20.414,3.045-58.243,1.196-63.847-1.498
				c0,0.051-9.221-5.789-9.221-5.789l-17.52-9.834c-4.056-1.348-13.24-1.498-25.662-0.947v-76.118
				c12.521-5.097,31.943-15.972,43.025-32.893c10.574-16.277,17.562-35.581,22.66-49.713c0,0,4.44-11.181,5.539-13.776
				c7.737,0.05,12.03,4.292,13.629,13.533c0.647,3.637,0.897,7.23,0.897,10.669c0,22.91-11.78,41.128-11.979,41.384l-7.736,11.836
				h50.162c13.377,0,21.512,5.234,26.354,16.964C229.621,130.127,218.587,177.693,213.75,194.465L213.75,194.465z"/>
		</g>
	</g>
</g>
</svg>
