<?xml version="1.0" encoding="utf-8"?>
<!-- Generator: Adobe Illustrator 16.0.0, SVG Export Plug-In . SVG Version: 6.00 Build 0)  -->
<!DOCTYPE svg PUBLIC "-//W3C//DTD SVG 1.1//EN" "http://www.w3.org/Graphics/SVG/1.1/DTD/svg11.dtd">
<svg version="1.1" id="Layer_1" xmlns="http://www.w3.org/2000/svg" xmlns:xlink="http://www.w3.org/1999/xlink" x="0px" y="0px"
	 width="462px" height="460.84px" viewBox="0 0 462 460.84" enable-background="new 0 0 462 460.84" xml:space="preserve">
<g>
	<path fill="#9E9E9E" d="M449.383,399.332l-94.051-94.096c22.685-32.688,33.994-69.186,33.994-109.425
		c0-26.112-5.084-51.127-15.202-74.955c-10.163-23.896-23.874-44.46-41.125-61.759c-17.3-17.24-37.864-30.903-61.738-41.091
		C247.436,7.887,222.419,2.793,196.237,2.793c-26.088,0-51.129,5.094-74.979,15.213C97.431,28.194,76.823,41.857,59.545,59.097
		C42.315,76.396,28.562,96.959,18.42,120.856C8.327,144.684,3.218,169.699,3.218,195.811c0,26.205,5.109,51.198,15.202,75.059
		c10.142,23.874,23.896,44.39,41.125,61.689c17.278,17.346,37.886,31.008,61.714,41.126c23.85,10.118,48.891,15.247,74.979,15.247
		c40.286,0,76.748-11.377,109.482-34.038l94.052,93.815c6.573,6.901,14.779,10.352,24.641,10.352c9.537,0,17.743-3.45,24.712-10.352
		c6.925-7.04,10.423-15.247,10.423-24.759C459.547,414.299,456.141,406.092,449.383,399.332L449.383,399.332z M283.057,282.62
		c-24.014,24.061-52.969,36.045-86.819,36.045c-33.829,0-62.715-11.984-86.75-36.045c-24.063-24.001-36.07-53.004-36.07-86.809
		c0-33.782,12.007-62.761,36.07-86.729c24.036-24.107,52.921-36.137,86.75-36.137c33.851,0,62.806,12.03,86.819,36.137
		c24.063,23.967,36.092,52.947,36.092,86.729C319.148,229.616,307.12,258.619,283.057,282.62L283.057,282.62z M283.057,282.62"/>
</g>
</svg>
