<?xml version="1.0" encoding="utf-8"?>
<!-- Generator: Adobe Illustrator 16.0.0, SVG Export Plug-In . SVG Version: 6.00 Build 0)  -->
<!DOCTYPE svg PUBLIC "-//W3C//DTD SVG 1.1//EN" "http://www.w3.org/Graphics/SVG/1.1/DTD/svg11.dtd">
<svg version="1.1" id="Layer_1" xmlns="http://www.w3.org/2000/svg" xmlns:xlink="http://www.w3.org/1999/xlink" x="0px" y="0px"
	 width="204.667px" height="182px" viewBox="0 0 204.667 182" enable-background="new 0 0 204.667 182" xml:space="preserve">
<g>
	<path fill="#808080" d="M28.843,175.68c0,0-0.149,4.472,4.191,4.472c5.447,0,50.401-0.063,50.401-0.063l0.076-41.3
		c0,0-0.695-6.802,5.917-6.802h20.886c7.845,0,7.339,6.802,7.339,6.802l-0.072,41.191h49.321c5.564,0,5.312-5.564,5.312-5.564
		V98.247l-69.557-61.828L28.843,98.247V175.68z M28.843,175.68"/>
	<path fill="#808080" d="M1.667,92.501c0,0,6.256,11.562,19.941,0l81.66-69.086l76.607,68.653c15.826,11.418,21.752,0,21.752,0
		L103.268,3L1.667,92.501z M1.667,92.501"/>
	<path fill="#808080" d="M177.997,23.23h-19.693l0.072,23.893l19.621,16.648V23.23z M177.997,23.23"/>
</g>
</svg>
