<?xml version="1.0" encoding="utf-8"?>
<!-- Generator: Adobe Illustrator 16.0.0, SVG Export Plug-In . SVG Version: 6.00 Build 0)  -->
<!DOCTYPE svg PUBLIC "-//W3C//DTD SVG 1.1//EN" "http://www.w3.org/Graphics/SVG/1.1/DTD/svg11.dtd">
<svg version="1.1" id="Layer_1" xmlns="http://www.w3.org/2000/svg" xmlns:xlink="http://www.w3.org/1999/xlink" x="0px" y="0px"
	 width="171.5px" height="54px" viewBox="0 0 171.5 54" enable-background="new 0 0 171.5 54" xml:space="preserve">
<g id="fenix">
	<g>
		<g>
			<path fill="#8EBCBB" d="M2.693,1.314h50.159c0,28.625-24.153,51.468-51.824,51.468V1.314H1.11"/>
		</g>
		<path fill="#1E1E1E" d="M2.968,2.458"/>
		<path fill="#F3EEE7" d="M50.1,17.955h-32.43v31.938c0,0-2.76,1.203-8.503,2.214L9.396,9.9L52.2,9.75
			C52.2,9.75,51.848,12.962,50.1,17.955z"/>
		<path fill="#E55454" d="M17.669,17.955v31.938c0,0,24.02-6.977,32.349-31.938H17.669z"/>
		<path fill="#F3EEE7" d="M17.028,26.386l29.274-0.052c0,0-2.793,4.935-5.976,8.264h-23.2L17.028,26.386z"/>
	</g>
	<g id="fenix_1_">
		<path fill="#413F3E" d="M63.715,32.836h-2.639c-0.715,0-1.21-0.604-1.21-1.209v-3.74c0-0.715,0.495-1.21,1.21-1.21h2.639v-3.023
			c0-6.765,3.574-10.613,10.283-10.613c3.354,0,6.322,1.43,7.478,2.474c0.44,0.275,0.549,0.99,0.274,1.43l-1.925,3.354
			c-0.275,0.495-0.99,0.66-1.54,0.331c-0.824-0.551-2.584-1.321-3.958-1.321c-3.188,0-3.738,1.706-3.738,4.346v3.023h6.928
			c0.714,0,1.209,0.495,1.209,1.21v3.74c0,0.604-0.496,1.209-1.209,1.209h-6.928v18.032c0,0.663-0.549,1.212-1.209,1.212h-4.454
			c-0.66,0-1.21-0.549-1.21-1.212V32.836z"/>
		<path fill="#413F3E" d="M92.092,26.127c6.599,0,11.657,4.892,11.657,11.765c0,0.386-0.056,1.267-0.11,1.651
			c-0.055,0.66-0.659,1.154-1.209,1.154H86.153c0.056,3.133,2.64,5.882,6.323,5.882c2.529,0,4.288-0.933,5.444-1.868
			c0.603-0.495,1.264-0.55,1.647,0l2.146,2.858c0.439,0.495,0.494,1.101-0.11,1.65c-2.199,1.869-5.334,3.464-9.457,3.464
			c-7.587,0-12.866-6.049-12.866-13.307C79.28,32.231,84.559,26.127,92.092,26.127z M96.821,36.189
			c-0.111-2.475-2.092-4.398-4.895-4.398c-3.08,0-5.06,1.868-5.389,4.398H96.821z"/>
		<path fill="#413F3E" d="M106.394,27.887c0-0.715,0.604-1.21,1.21-1.21h2.089c0.604,0,0.879,0.274,1.045,0.77l0.935,2.365
			c0.935-1.047,3.299-3.685,8.192-3.685c8.082,0,10.172,5.445,10.172,11.603v13.138c0,0.663-0.604,1.212-1.209,1.212h-4.454
			c-0.659,0-1.21-0.549-1.21-1.212V37.73c0-3.3-1.318-5.335-4.398-5.335c-3.299,0-4.894,2.199-5.498,3.961v14.512
			c0,0.936-0.386,1.212-1.595,1.212h-4.068c-0.605,0-1.21-0.549-1.21-1.212V27.887z"/>
		<path fill="#413F3E" d="M132.561,17.935c0-2.419,1.868-4.344,4.344-4.344c2.474,0,4.397,1.924,4.397,4.344
			c0,2.42-1.924,4.398-4.397,4.398C134.429,22.333,132.561,20.355,132.561,17.935z M133.549,27.887c0-0.715,0.604-1.21,1.209-1.21
			h4.454c0.604,0,1.209,0.495,1.209,1.21v22.981c0,0.663-0.604,1.212-1.209,1.212h-4.454c-0.604,0-1.209-0.549-1.209-1.212V27.887z"
			/>
		<path fill="#413F3E" d="M143.723,50.21l8.081-11.051l-7.753-10.612c-0.659-0.825-0.164-1.87,0.881-1.87h5.004
			c0.821,0,1.484,0.055,2.088,0.88l4.233,6.652h0.11l4.344-6.652c0.495-0.716,1.045-0.88,1.926-0.88h5.387
			c1.101,0,1.374,1.045,0.715,1.87l-7.806,10.5l7.86,11.163c0.604,0.826,0.331,1.87-0.714,1.87h-5.278
			c-0.825,0-1.321-0.386-1.761-1.044l-4.673-6.983h-0.11l-4.946,7.533c-0.223,0.276-0.662,0.494-1.047,0.494h-5.718
			C143.446,52.08,143.172,51.036,143.723,50.21z"/>
	</g>
</g>
</svg>
