<?xml version="1.0" encoding="utf-8"?>
<!-- Generator: Adobe Illustrator 16.0.0, SVG Export Plug-In . SVG Version: 6.00 Build 0)  -->
<!DOCTYPE svg PUBLIC "-//W3C//DTD SVG 1.1//EN" "http://www.w3.org/Graphics/SVG/1.1/DTD/svg11.dtd">
<svg version="1.1" xmlns="http://www.w3.org/2000/svg" xmlns:xlink="http://www.w3.org/1999/xlink" x="0px" y="0px"
	 width="59.458px" height="59.5px" viewBox="0 0 59.458 59.5" enable-background="new 0 0 59.458 59.5" xml:space="preserve">
<g id="Layer_2">
	<rect x="0.167" fill="#F4F4F4" width="59.229" height="59.333"/>
</g>
<g id="Layer_1">
	<g id="logo_3_">
		<g>
			<g>
				<path fill="#8FBCBC" d="M10.194,8.368h41.377c0,23.822-19.957,42.272-42.821,42.272V8.112L8.915,8.24"/>
			</g>
			<path fill="#1E1E1E" d="M10.354,9.059"/>
			<path fill="#F3EEE8" d="M49.297,21.978H22.724v26.276c0,0-2.392,0.994-7.135,1.828l0.132-34.874l35.341-0.066
				C51.061,15.141,50.743,17.83,49.297,21.978z"/>
			<path fill="#E45554" d="M22.724,21.978v26.276c0,0,19.625-6.04,26.507-26.276H22.724z"/>
			<path fill="#F3EEE8" d="M21.971,28.909l24.19-0.003c0,0-2.309,4.297-4.937,6.867H22.053L21.971,28.909z"/>
		</g>
	</g>
</g>
</svg>
