<?xml version="1.0" encoding="utf-8"?>
<!-- Generator: Adobe Illustrator 16.0.0, SVG Export Plug-In . SVG Version: 6.00 Build 0)  -->
<!DOCTYPE svg PUBLIC "-//W3C//DTD SVG 1.1//EN" "http://www.w3.org/Graphics/SVG/1.1/DTD/svg11.dtd">
<svg version="1.1" id="Layer_1" xmlns="http://www.w3.org/2000/svg" xmlns:xlink="http://www.w3.org/1999/xlink" x="0px" y="0px"
	 width="240.667px" height="226px" viewBox="0 0 240.667 226" enable-background="new 0 0 240.667 226" xml:space="preserve">
<g>
	<g>
		<defs>
			<rect id="SVGID_1_" x="1.667" y="2" width="242.252" height="230"/>
		</defs>
		<clipPath id="SVGID_2_">
			<use xlink:href="#SVGID_1_"  overflow="visible"/>
		</clipPath>
		<path clip-path="url(#SVGID_2_)" fill="#808080" d="M236.159,105.869c-7.188-17.513-20.814-26.41-40.48-26.41h-23.609
			c3.994-8.979,8.438-22.056,8.438-37.784c0-4.343-0.352-8.779-1.148-13.377c-3.096-18.262-15.574-27.995-33.344-26.055
			c-7.044,0.805-9.427,7.487-15.266,23.665c-4.842,13.433-11.488,31.794-21.07,46.562c-7.095,10.837-19.666,19.423-30.197,24.713
			V95.83H1.667v115.543h77.814v-6.327c12.229-0.611,19.223-0.249,20.87,0.25l13.876,8.086l10.424,6.477
			c10.077,5.454,54.307,6.001,73.273,3.193c24.408-3.579,30.297-23.546,30.547-24.395
			C230.37,192.019,247.139,132.561,236.159,105.869L236.159,105.869z M213.749,194.465c-0.102,0.387-3.695,11.38-18.02,13.427
			c-20.414,3.045-58.243,1.197-63.846-1.498c0,0.051-9.221-5.789-9.221-5.789l-17.52-9.833c-4.056-1.348-13.24-1.498-25.662-0.948
			v-76.118c12.521-5.097,31.943-15.972,43.025-32.893c10.575-16.277,17.562-35.581,22.66-49.713c0,0,4.441-11.181,5.539-13.776
			c7.738,0.05,12.031,4.292,13.629,13.533c0.648,3.637,0.898,7.23,0.898,10.669c0,22.91-11.781,41.128-11.98,41.384l-7.736,11.836
			h50.162c13.377,0,21.512,5.234,26.355,16.964C229.62,130.127,218.588,177.694,213.749,194.465L213.749,194.465z M213.749,194.465"
			/>
	</g>
</g>
</svg>
