<?xml version="1.0" encoding="utf-8"?>
<!-- Generator: Adobe Illustrator 16.0.0, SVG Export Plug-In . SVG Version: 6.00 Build 0)  -->
<!DOCTYPE svg PUBLIC "-//W3C//DTD SVG 1.1//EN" "http://www.w3.org/Graphics/SVG/1.1/DTD/svg11.dtd">
<svg version="1.1" id="Layer_1" xmlns="http://www.w3.org/2000/svg" xmlns:xlink="http://www.w3.org/1999/xlink" x="0px" y="0px"
	 width="79.333px" height="76.667px" viewBox="0 0 79.333 76.667" enable-background="new 0 0 79.333 76.667" xml:space="preserve">
<g>
	<g>
		<defs>
			<rect id="SVGID_1_" x="1" y="1" width="78" height="74.982"/>
		</defs>
		<clipPath id="SVGID_2_">
			<use xlink:href="#SVGID_1_"  overflow="visible"/>
		</clipPath>
		<path clip-path="url(#SVGID_2_)" fill="#808080" d="M49.934,66.789H10.09V10.075h39.844c0.887,0,1.602-0.718,1.602-1.601V2.583
			c0-0.883-0.715-1.601-1.602-1.601H2.602C1.719,0.982,1,1.7,1,2.583v71.694c0,0.883,0.719,1.602,1.602,1.602h47.332
			c0.887,0,1.602-0.719,1.602-1.602v-5.889C51.535,67.504,50.82,66.789,49.934,66.789L49.934,66.789z M49.934,66.789"/>
	</g>
	<path fill="#808080" d="M78.086,37.302L56.547,15.763c-0.602-0.602-1.66-0.598-2.262,0l-5.109,5.113
		c-0.625,0.625-0.625,1.637,0,2.262l9.727,9.73H16.789c-0.883,0-1.598,0.715-1.598,1.598v7.931c0,0.881,0.715,1.6,1.598,1.6h42.113
		l-9.727,9.729c-0.625,0.625-0.625,1.639,0,2.264l5.109,5.111c0.301,0.301,0.707,0.469,1.133,0.469c0.422,0,0.828-0.168,1.129-0.469
		l21.539-21.535c0.301-0.302,0.469-0.708,0.469-1.133C78.555,38.009,78.387,37.599,78.086,37.302L78.086,37.302z M78.086,37.302"/>
</g>
</svg>
