<?xml version="1.0" encoding="utf-8"?>
<!-- Generator: Adobe Illustrator 16.0.0, SVG Export Plug-In . SVG Version: 6.00 Build 0)  -->
<!DOCTYPE svg PUBLIC "-//W3C//DTD SVG 1.1//EN" "http://www.w3.org/Graphics/SVG/1.1/DTD/svg11.dtd">
<svg version="1.1" id="Layer_1" xmlns="http://www.w3.org/2000/svg" xmlns:xlink="http://www.w3.org/1999/xlink" x="0px" y="0px"
	 width="53.25px" height="52.5px" viewBox="0 0 53.25 52.5" enable-background="new 0 0 53.25 52.5" xml:space="preserve">
<g>
	<rect x="-0.92" y="-1.5" fill="#97C4C2" stroke="#CCCCCC" stroke-miterlimit="10" width="55.795" height="55.794"/>
	<g>
		<g>
			<g>
				<defs>
					<rect id="SVGID_1_" x="11.922" y="13.778" width="28.765" height="27.31"/>
				</defs>
				<clipPath id="SVGID_2_">
					<use xlink:href="#SVGID_1_"  overflow="visible"/>
				</clipPath>
				<path clip-path="url(#SVGID_2_)" fill="#FFFFFF" d="M39.763,26.109c-0.854-2.077-2.474-3.135-4.807-3.135h-2.803
					c0.477-1.067,1.001-2.618,1.001-4.488c0-0.514-0.042-1.04-0.133-1.586c-0.37-2.167-1.853-3.325-3.961-3.094
					c-0.837,0.096-1.121,0.889-1.812,2.811c-0.575,1.596-1.367,3.775-2.502,5.53c-0.844,1.286-2.335,2.305-3.587,2.936v-0.166
					h-9.238v13.719h9.238v-0.749c1.452-0.071,2.283-0.027,2.479,0.031l1.649,0.957l1.236,0.77c1.195,0.646,6.448,0.712,8.699,0.378
					c2.9-0.426,3.6-2.797,3.628-2.897C39.077,36.342,41.065,29.28,39.763,26.109L39.763,26.109z"/>
			</g>
		</g>
	</g>
	<g>
		<g>
			<g>
				<defs>
					<rect id="SVGID_3_" x="11.922" y="13.778" width="28.765" height="27.31"/>
				</defs>
				<clipPath id="SVGID_4_">
					<use xlink:href="#SVGID_3_"  overflow="visible"/>
				</clipPath>
				<path clip-path="url(#SVGID_4_)" fill="#808080" d="M39.763,26.109c-0.854-2.077-2.474-3.135-4.807-3.135h-2.803
					c0.477-1.067,1.001-2.618,1.001-4.488c0-0.514-0.042-1.04-0.133-1.586c-0.37-2.167-1.853-3.325-3.961-3.094
					c-0.837,0.096-1.121,0.889-1.812,2.811c-0.575,1.596-1.367,3.775-2.502,5.53c-0.844,1.286-2.335,2.305-3.587,2.936v-0.166
					h-9.238v13.719h9.238v-0.749c1.452-0.071,2.283-0.027,2.479,0.031l1.649,0.957l1.236,0.77c1.195,0.646,6.448,0.712,8.699,0.378
					c2.9-0.426,3.6-2.797,3.628-2.897C39.077,36.342,41.065,29.28,39.763,26.109L39.763,26.109z M37.104,36.631
					c-0.013,0.045-0.44,1.351-2.138,1.595c-2.427,0.361-6.918,0.141-7.582-0.18c0,0.007-1.095-0.686-1.095-0.686l-2.081-1.167
					c-0.482-0.161-1.574-0.179-3.046-0.115v-9.037c1.487-0.606,3.792-1.895,5.111-3.905c1.254-1.932,2.082-4.224,2.688-5.902
					c0,0,0.528-1.328,0.656-1.637c0.92,0.006,1.43,0.509,1.618,1.606c0.08,0.433,0.107,0.859,0.107,1.266
					c0,2.72-1.398,4.884-1.422,4.914l-0.916,1.407h5.954c1.59,0,2.555,0.62,3.13,2.013C38.987,28.992,37.677,34.638,37.104,36.631
					L37.104,36.631z"/>
			</g>
		</g>
	</g>
</g>
</svg>
