<?xml version="1.0" encoding="UTF-8" standalone="no"?>
<!-- Created with Inkscape (http://www.inkscape.org/) -->
<svg
   xmlns:dc="http://purl.org/dc/elements/1.1/"
   xmlns:cc="http://creativecommons.org/ns#"
   xmlns:rdf="http://www.w3.org/1999/02/22-rdf-syntax-ns#"
   xmlns:svg="http://www.w3.org/2000/svg"
   xmlns="http://www.w3.org/2000/svg"
   xmlns:sodipodi="http://sodipodi.sourceforge.net/DTD/sodipodi-0.dtd"
   xmlns:inkscape="http://www.inkscape.org/namespaces/inkscape"
   width="744.09448819"
   height="1052.3622047"
   id="svg2"
   sodipodi:version="0.32"
   inkscape:version="0.46+pre4"
   sodipodi:docname="female silhouette.svg"
   inkscape:output_extension="org.inkscape.output.svg.inkscape">
  <defs
     id="defs4">
    <inkscape:perspective
       sodipodi:type="inkscape:persp3d"
       inkscape:vp_x="0 : 526.18109 : 1"
       inkscape:vp_y="0 : 1000 : 0"
       inkscape:vp_z="744.09448 : 526.18109 : 1"
       inkscape:persp3d-origin="372.04724 : 350.78739 : 1"
       id="perspective10" />
    <inkscape:perspective
       id="perspective2390"
       inkscape:persp3d-origin="372.04724 : 350.78739 : 1"
       inkscape:vp_z="744.09448 : 526.18109 : 1"
       inkscape:vp_y="0 : 1000 : 0"
       inkscape:vp_x="0 : 526.18109 : 1"
       sodipodi:type="inkscape:persp3d" />
    <inkscape:perspective
       id="perspective2425"
       inkscape:persp3d-origin="372.04724 : 350.78739 : 1"
       inkscape:vp_z="744.09448 : 526.18109 : 1"
       inkscape:vp_y="0 : 1000 : 0"
       inkscape:vp_x="0 : 526.18109 : 1"
       sodipodi:type="inkscape:persp3d" />
    <inkscape:perspective
       id="perspective2460"
       inkscape:persp3d-origin="372.04724 : 350.78739 : 1"
       inkscape:vp_z="744.09448 : 526.18109 : 1"
       inkscape:vp_y="0 : 1000 : 0"
       inkscape:vp_x="0 : 526.18109 : 1"
       sodipodi:type="inkscape:persp3d" />
    <inkscape:perspective
       id="perspective2495"
       inkscape:persp3d-origin="372.04724 : 350.78739 : 1"
       inkscape:vp_z="744.09448 : 526.18109 : 1"
       inkscape:vp_y="0 : 1000 : 0"
       inkscape:vp_x="0 : 526.18109 : 1"
       sodipodi:type="inkscape:persp3d" />
    <inkscape:perspective
       id="perspective2530"
       inkscape:persp3d-origin="372.04724 : 350.78739 : 1"
       inkscape:vp_z="744.09448 : 526.18109 : 1"
       inkscape:vp_y="0 : 1000 : 0"
       inkscape:vp_x="0 : 526.18109 : 1"
       sodipodi:type="inkscape:persp3d" />
    <inkscape:perspective
       id="perspective2565"
       inkscape:persp3d-origin="372.04724 : 350.78739 : 1"
       inkscape:vp_z="744.09448 : 526.18109 : 1"
       inkscape:vp_y="0 : 1000 : 0"
       inkscape:vp_x="0 : 526.18109 : 1"
       sodipodi:type="inkscape:persp3d" />
    <inkscape:perspective
       id="perspective2600"
       inkscape:persp3d-origin="372.04724 : 350.78739 : 1"
       inkscape:vp_z="744.09448 : 526.18109 : 1"
       inkscape:vp_y="0 : 1000 : 0"
       inkscape:vp_x="0 : 526.18109 : 1"
       sodipodi:type="inkscape:persp3d" />
    <inkscape:perspective
       id="perspective2635"
       inkscape:persp3d-origin="372.04724 : 350.78739 : 1"
       inkscape:vp_z="744.09448 : 526.18109 : 1"
       inkscape:vp_y="0 : 1000 : 0"
       inkscape:vp_x="0 : 526.18109 : 1"
       sodipodi:type="inkscape:persp3d" />
  </defs>
  <sodipodi:namedview
     id="base"
     pagecolor="#ffffff"
     bordercolor="#666666"
     borderopacity="1.0"
     gridtolerance="10000"
     guidetolerance="10"
     objecttolerance="10"
     inkscape:pageopacity="0.0"
     inkscape:pageshadow="2"
     inkscape:zoom="0.7"
     inkscape:cx="241.91651"
     inkscape:cy="632.84338"
     inkscape:document-units="px"
     inkscape:current-layer="layer1"
     showgrid="false"
     inkscape:window-width="1280"
     inkscape:window-height="975"
     inkscape:window-x="-4"
     inkscape:window-y="-4" />
  <metadata
     id="metadata7">
    <rdf:RDF>
      <cc:Work
         rdf:about="">
        <dc:format>image/svg+xml</dc:format>
        <dc:type
           rdf:resource="http://purl.org/dc/dcmitype/StillImage" />
        <dc:title>Female silhouette</dc:title>
        <dc:subject>
          <rdf:Bag>
            <rdf:li>female silhouette head face shoulders</rdf:li>
          </rdf:Bag>
        </dc:subject>
      </cc:Work>
    </rdf:RDF>
  </metadata>
  <g
     inkscape:label="Layer 1"
     inkscape:groupmode="layer"
     id="layer1">
    <path
       style="fill:#000000"
       d="M 110.85714,420.70994 C 110.85714,413.77122 113.31395,402.2299 115.55351,398.64789 C 119.37712,392.5323 129.40678,384.26474 137.58691,380.4855 C 142.13554,378.38403 145.85714,376.22841 145.85714,375.69522 C 145.85714,375.16204 145.03315,373.92077 144.02605,372.93685 C 142.82893,371.76728 141.78242,368.35719 141.00345,363.08765 C 139.99298,356.25201 140.04433,354.36879 141.34144,350.69238 C 142.44284,347.57069 142.61688,345.43728 141.96326,343.07006 C 141.46405,341.26205 141.31353,339.52483 141.62879,339.20957 C 141.94405,338.89432 142.34629,334.43628 142.52266,329.30282 C 142.93652,317.25717 148.49797,300.45433 154.86001,292.02786 C 159.10294,286.40815 169.03329,279.27007 175.92814,276.8838 C 180.23556,275.39302 185.50788,275.27376 186.35714,276.64789 C 186.69706,277.19789 189.11376,277.64789 191.7276,277.64789 C 195.0483,277.64789 197.06403,278.21992 198.41858,279.54669 C 202.84165,283.87905 211.85714,295.84139 211.85714,297.37785 C 211.85714,297.73047 212.70041,298.94799 213.73108,300.08344 C 216.50037,303.13427 220.85714,311.43024 220.85714,313.65258 C 220.85714,314.71613 221.76986,317.3374 222.88541,319.47763 C 224.54902,322.66933 224.71915,323.88062 223.8317,326.21481 C 223.2366,327.78003 222.8567,330.20529 222.98748,331.60428 C 223.11826,333.00326 222.19634,336.1328 220.93879,338.55879 C 218.90266,342.48675 218.72979,343.79639 219.35986,350.52021 C 219.74901,354.67299 220.46857,359.12588 220.95889,360.41551 C 221.87275,362.81915 219.83415,368.34067 217.47248,369.8584 C 216.03944,370.77935 219.17721,373.18943 223.85714,374.76238 C 225.78214,375.40938 228.43033,376.7733 229.742,377.79332 C 231.05367,378.81333 232.65282,379.64789 233.29565,379.64789 C 233.93849,379.64789 236.79779,380.81064 239.64966,382.23179 C 246.17269,385.48235 252.26288,392.29612 253.64314,397.88784 C 255.49718,405.39898 256.77241,412.97083 257.35001,419.89789 L 257.91284,426.64789 L 184.38499,426.64789 L 110.85714,426.64789 L 110.85714,420.70994 z"
       id="path2641" />
  </g>
</svg>
